<svg xmlns="http://www.w3.org/2000/svg" xmlns:xlink="http://www.w3.org/1999/xlink" width="500" zoomAndPan="magnify" viewBox="0 0 375 374.999991" height="500" preserveAspectRatio="xMidYMid meet" version="1.0"><defs><clipPath id="13ae6ba920"><path d="M 4 121.023438 L 371 121.023438 L 371 253.773438 L 4 253.773438 Z M 4 121.023438 " clip-rule="nonzero"/></clipPath><clipPath id="09b515f558"><path d="M 3 121.023438 L 372 121.023438 L 372 253.773438 L 3 253.773438 Z M 3 121.023438 " clip-rule="nonzero"/></clipPath></defs><g clip-path="url(#13ae6ba920)"><path fill="#000000" d="M 188.027344 122.25 C 188.421875 121.695312 189.023438 121.023438 189.832031 121.554688 C 195.058594 123.101562 199.175781 126.867188 203.359375 130.167969 C 205.925781 132.128906 208.332031 134.277344 210.597656 136.5625 C 215.847656 141.34375 220.726562 146.46875 225.976562 151.25 C 226.738281 151.828125 227.457031 152.632812 228.449219 152.867188 C 232.566406 153.789062 236.84375 153.789062 241.054688 153.925781 C 259.574219 153.789062 278.097656 155.589844 296.296875 159.078125 C 300.273438 159.515625 304.066406 161.015625 308.066406 161.5 C 315.328125 163.394531 322.613281 165.171875 329.757812 167.433594 C 334.128906 169.003906 338.730469 169.835938 343.101562 171.382812 C 346.871094 172.582031 350.546875 174.085938 354.179688 175.632812 C 357.484375 177.363281 360.976562 178.796875 364.074219 180.964844 C 366.664062 182.742188 369.671875 184.773438 370.410156 188.054688 C 371.082031 189.648438 369.648438 190.800781 368.652344 191.769531 C 366.78125 193.109375 364.515625 193.6875 362.457031 194.613281 C 362.480469 194.773438 362.527344 195.074219 362.570312 195.234375 C 364.953125 195.605469 367.21875 194.679688 369.601562 194.613281 C 371.082031 195.1875 371.496094 197.40625 370.296875 198.492188 C 368.792969 200.960938 366.132812 202.371094 363.636719 203.640625 C 360.652344 205.277344 357.324219 206.109375 354.109375 207.21875 C 334.796875 213.15625 315.601562 215.316406 297.269531 220.933594 C 295.925781 221.234375 295.257812 222.457031 294.332031 223.3125 C 293.082031 224.511719 292.226562 226.035156 291.347656 227.515625 C 288.34375 231.695312 285.105469 235.6875 281.683594 239.542969 C 280.25 240.769531 278.605469 242.660156 276.503906 241.851562 C 274.929688 241.414062 274.238281 239.773438 274.074219 238.296875 C 273.9375 234.1875 273.75 230.054688 274.121094 225.945312 C 269.359375 226.660156 264.617188 227.652344 259.785156 227.859375 C 256.339844 228.070312 252.964844 228.785156 249.515625 229.152344 C 245.171875 229.636719 240.847656 230.539062 236.429688 230.585938 C 227.917969 230.539062 219.386719 231.417969 210.898438 230.402344 C 210.230469 232.5 208.796875 234.1875 207.5 235.917969 C 205.765625 237.882812 204.773438 240.558594 202.460938 241.945312 C 200.863281 242.730469 199.660156 241.136719 199.128906 239.867188 C 198.714844 239.382812 198.367188 237.996094 197.441406 238.320312 C 191.449219 242.496094 188 248.566406 180.675781 252.984375 C 179.703125 253.628906 178.316406 253.582031 177.460938 252.773438 C 175.566406 250.535156 175.679688 247.441406 176.351562 244.738281 C 177.378906 237.070312 176.945312 233.527344 180.90625 227.074219 C 178.480469 226.566406 176.003906 226.5 173.554688 226.175781 C 166.871094 224.8125 160.09375 224.097656 153.296875 223.566406 C 147.632812 223.058594 141.894531 222.296875 136.207031 223.105469 C 134.496094 223.242188 133.109375 224.257812 131.628906 224.953125 C 128.878906 226.222656 126.289062 227.746094 123.765625 229.40625 C 121.730469 230.769531 119.441406 231.671875 117.363281 232.941406 C 113.59375 235.132812 109.683594 237.050781 105.753906 238.875 C 101.9375 240.191406 98.398438 242.222656 94.652344 243.746094 C 93.082031 244.371094 91.117188 244.394531 89.679688 243.445312 C 87.761719 241.644531 87.207031 238.988281 86.351562 236.613281 C 85.355469 233.449219 83.855469 230.445312 83.34375 227.144531 C 82.976562 223.542969 82.976562 219.917969 83.4375 216.316406 C 83.578125 215.414062 83.300781 214.539062 82.953125 213.730469 C 83.578125 213.039062 83.96875 211.835938 85.195312 212.113281 C 87.925781 211.976562 90.699219 211.582031 93.011719 210.035156 C 90.816406 209.019531 88.386719 208.765625 86.050781 208.257812 C 82.976562 207.589844 79.855469 207.289062 76.730469 206.964844 C 72.246094 206.527344 67.761719 207.078125 63.320312 207.65625 C 61.078125 208.027344 59.066406 209.179688 56.84375 209.710938 C 52.914062 210.683594 49.191406 212.367188 45.214844 213.292969 C 41.144531 214.238281 37.375 216.132812 33.375 217.378906 C 30.207031 218.324219 27.039062 219.523438 23.730469 219.824219 C 19.222656 220.355469 14.710938 220.886719 10.203125 221.417969 C 8.121094 221.464844 6.0625 221.347656 4.007812 221.210938 C 4.628906 219.664062 5.371094 218.140625 5.347656 216.429688 C 7.8125 207.550781 10.339844 200.125 12.976562 191.539062 C 13.210938 189.878906 12.539062 188.308594 12.378906 186.691406 C 7.617188 175.589844 8.441406 167.109375 8.332031 154.621094 C 8.628906 153.074219 10.804688 153.003906 12.054688 153.121094 C 19.105469 153.925781 26.089844 155.867188 32.472656 159.007812 C 36.519531 160.785156 40.589844 162.5625 44.289062 164.988281 C 49.304688 167.710938 53.628906 171.84375 59.226562 173.4375 C 63.804688 174.640625 68.5 175.632812 73.261719 175.722656 C 78.210938 175.699219 83.207031 175.769531 88.085938 174.871094 C 85.449219 173.921875 82.535156 173.644531 80.085938 172.214844 C 78.859375 171.523438 79.414062 169.675781 80.269531 168.890625 C 82.003906 166.742188 85.011719 166.765625 87.507812 166.582031 C 89.726562 166.441406 91.855469 167.296875 93.984375 167.828125 C 97.984375 168.957031 101.890625 171.035156 106.167969 170.503906 C 109.824219 169.929688 113.546875 169.929688 117.222656 169.328125 C 120.96875 168.726562 124.738281 168.382812 128.460938 167.574219 C 131.027344 167.574219 133.59375 167.273438 136.09375 166.695312 C 140.070312 166.027344 144.117188 165.726562 148.023438 164.757812 C 153.296875 163.648438 158.683594 163.394531 163.980469 162.378906 C 167.195312 161.683594 170.523438 161.363281 173.691406 160.414062 C 170.871094 159.5625 167.910156 159.191406 165.066406 158.429688 C 163.054688 157.691406 160.972656 157.207031 158.984375 156.421875 C 158.9375 155.3125 159.425781 154.273438 159.980469 153.351562 C 161.226562 151.871094 163.078125 151.0625 164.417969 149.703125 C 171.757812 141.59375 187.539062 124.660156 188.03125 122.25 Z M 188.027344 122.25 " fill-opacity="1" fill-rule="nonzero"/></g><g clip-path="url(#09b515f558)"><path stroke-linecap="butt" transform="matrix(4.68131, 0, 0, 4.674296, -1.390877, -0.508967)" fill="none" stroke-linejoin="miter" d="M 40.46265 26.26256 C 40.546928 26.143892 40.675431 26.000154 40.848159 26.113807 C 41.964633 26.444739 42.844128 27.250342 43.737808 27.956498 C 44.286032 28.376013 44.800044 28.835641 45.284016 29.324518 C 46.405497 30.3474 47.447707 31.443822 48.569188 32.466703 C 48.731903 32.590385 48.885439 32.762536 49.097385 32.812678 C 49.97688 33.0099 50.890586 33.0099 51.790107 33.039149 C 55.746165 33.0099 59.703056 33.395152 63.59069 34.141421 C 64.440145 34.235018 65.250381 34.555921 66.104843 34.659547 C 67.656058 35.064855 69.212279 35.445093 70.738461 35.928956 C 71.672194 36.264902 72.655159 36.442904 73.588892 36.773836 C 74.394122 37.030392 75.179325 37.352132 75.95535 37.683064 C 76.661282 38.053273 77.407267 38.359971 78.068974 38.823777 C 78.622205 39.204015 79.26472 39.638572 79.422428 40.34055 C 79.565951 40.68151 79.259713 40.928038 79.046932 41.135288 C 78.647238 41.421929 78.163266 41.545611 77.723518 41.743669 C 77.728525 41.777932 77.738538 41.84228 77.747717 41.876543 C 78.256722 41.955934 78.740695 41.757876 79.2497 41.743669 C 79.565951 41.866515 79.654401 42.341185 79.39823 42.573507 C 79.076972 43.101661 78.508722 43.403344 77.975518 43.674943 C 77.338009 44.025096 76.62707 44.203097 75.94033 44.440432 C 71.814883 45.710677 67.714468 46.172812 63.798464 47.374531 C 63.511418 47.438879 63.36873 47.700449 63.170969 47.883464 C 62.903949 48.14002 62.721208 48.465938 62.53346 48.782664 C 61.89178 49.67685 61.200033 50.530922 60.469068 51.355746 C 60.16283 51.618151 59.811533 52.022624 59.362607 51.849637 C 59.026329 51.75604 58.878634 51.405051 58.843588 51.089161 C 58.814383 50.210018 58.77433 49.325861 58.853601 48.446718 C 57.836425 48.599648 56.82342 48.811913 55.791224 48.856204 C 55.055252 48.901332 54.3343 49.054262 53.597494 49.132817 C 52.669602 49.236442 51.745882 49.429486 50.802136 49.439514 C 48.983902 49.429486 47.161496 49.617516 45.348268 49.400237 C 45.205579 49.849001 44.899342 50.210018 44.622309 50.580228 C 44.25182 51.000578 44.039874 51.573024 43.545888 51.869693 C 43.204604 52.037666 42.947598 51.696706 42.834115 51.425108 C 42.745665 51.321482 42.6714 51.024813 42.473639 51.094175 C 41.193615 51.987525 40.456809 53.286183 38.892243 54.231346 C 38.684469 54.369234 38.388244 54.359206 38.205503 54.186219 C 37.800802 53.70737 37.825 53.045505 37.968523 52.46721 C 38.18798 50.826755 38.095357 50.068787 38.941475 48.688231 C 38.42329 48.579592 37.894258 48.565385 37.371068 48.496023 C 35.943349 48.204368 34.495604 48.051437 33.043687 47.937784 C 31.833756 47.829145 30.607971 47.666186 29.393033 47.839173 C 29.02755 47.868422 28.731326 48.085701 28.415075 48.234453 C 27.827633 48.506051 27.274402 48.83197 26.735357 49.187137 C 26.300616 49.478792 25.811637 49.671835 25.367718 49.943434 C 24.562488 50.412254 23.727218 50.822577 22.887776 51.212843 C 22.072533 51.49447 21.316535 51.929027 20.516312 52.254945 C 20.180869 52.388655 19.761148 52.393669 19.454076 52.190597 C 19.044368 51.805345 18.925878 51.237078 18.743137 50.72898 C 18.530356 50.052073 18.209933 49.40943 18.100622 48.703274 C 18.022185 47.93277 18.022185 47.157252 18.120648 46.386748 C 18.150688 46.193704 18.091443 46.00651 18.017178 45.833523 C 18.150688 45.685606 18.234131 45.428215 18.496144 45.487549 C 19.079414 45.458299 19.671863 45.373895 20.165849 45.042963 C 19.696896 44.825684 19.177878 44.771364 18.678885 44.662725 C 18.022185 44.519822 17.355471 44.455475 16.687923 44.386113 C 15.729991 44.292516 14.77206 44.410347 13.823307 44.534029 C 13.344341 44.613419 12.914607 44.859947 12.439814 44.973601 C 11.600372 45.181687 10.805155 45.541868 9.9557 45.739926 C 9.086219 45.942162 8.280989 46.347471 7.426527 46.614055 C 6.7498 46.816292 6.073073 47.072848 5.366307 47.137195 C 4.403368 47.250849 3.439596 47.364502 2.476658 47.478156 C 2.031904 47.488184 1.592156 47.463114 1.153243 47.433865 C 1.285919 47.102932 1.444461 46.777014 1.439455 46.410983 C 1.965983 44.511466 2.505863 42.922824 3.069107 41.085983 C 3.119173 40.730816 2.97565 40.394869 2.941438 40.048895 C 1.924261 37.673871 2.100327 35.859594 2.076963 33.187901 C 2.14038 32.856969 2.605161 32.841927 2.87218 32.866997 C 4.378335 33.039149 5.870305 33.454485 7.233772 34.126378 C 8.098247 34.506616 8.967729 34.886854 9.757939 35.405816 C 10.829354 35.98829 11.753073 36.872447 12.948819 37.213407 C 13.926777 37.470799 14.929768 37.683064 15.946945 37.702285 C 17.004174 37.69727 18.071416 37.712313 19.113626 37.520105 C 18.550382 37.317033 17.927894 37.257699 17.404703 36.951837 C 17.14269 36.803921 17.26118 36.40864 17.443921 36.240667 C 17.81441 35.781039 18.456926 35.786053 18.99013 35.746776 C 19.464089 35.716691 19.918856 35.899707 20.373623 36.01336 C 21.228085 36.254874 22.06252 36.69946 22.976226 36.585806 C 23.757258 36.46296 24.552474 36.46296 25.337678 36.334264 C 26.137901 36.205568 26.943131 36.132028 27.738348 35.959041 C 28.286572 35.959041 28.834796 35.894693 29.368834 35.771011 C 30.218289 35.628108 31.082764 35.563761 31.917199 35.35651 C 33.043687 35.119175 34.194373 35.064855 35.325867 34.847576 C 36.012607 34.698824 36.723546 34.630298 37.400273 34.427226 C 36.797811 34.245046 36.165309 34.165655 35.55784 34.002696 C 35.128106 33.844752 34.683352 33.741126 34.258624 33.573153 C 34.248611 33.335818 34.352916 33.113525 34.471405 32.916303 C 34.73759 32.599577 35.133112 32.42659 35.419324 32.135771 C 36.987227 30.400884 40.358346 26.778179 40.463484 26.26256 Z M 40.46265 26.26256 " stroke="#000000" stroke-width="0.005" stroke-opacity="1" stroke-miterlimit="4"/></g></svg>